<svg xmlns="http://www.w3.org/2000/svg" xmlns:xlink="http://www.w3.org/1999/xlink" width="325" height="363.241" viewBox="0 0 325 363.241">
  <defs>
    <clipPath id="clip-path">
      <path id="Clip_66" data-name="Clip 66" d="M0,0H-20.824V6.527H0Z" transform="translate(0.47 -0.242) rotate(180)" fill="none"/>
    </clipPath>
    <clipPath id="clip-path-2">
      <path id="Clip_69" data-name="Clip 69" d="M0,0H-42.509V56.886H0Z" transform="translate(0.719 -0.174) rotate(180)" fill="none"/>
    </clipPath>
  </defs>
  <g id="Artwork" transform="translate(325.115 -0.759) rotate(180)">
    <ellipse id="Oval" cx="162.5" cy="18.5" rx="162.5" ry="18.5" transform="translate(325.115 -327) rotate(180)" fill="#f0f3f8"/>
    <path id="Fill_1" data-name="Fill 1" d="M-34.188,23.32s.684,9.921,3.258,11.917a7.311,7.311,0,0,1,7.72-1.4,16.4,16.4,0,0,1,6.383,4.419c.5.57.761.95.761.95s4.678,1.294,8.422-5.835C-3.9,26.224-.982,22.243-.159,16.161A17.485,17.485,0,0,0,0,13.833C-.008,8.843-2.18,4.941-3.9,3.42c-1.993-1.763-3.743-1.293-7.373-.359a19.933,19.933,0,0,1-3.044.5c-.005,0-.005,0-.017.011-3.621.344-8.1.063-10.155-1.087C-27.2.955-31.382-1.084-31.642.685c-.017.131-.037.307-.046.523-.066,1.177-.029,3.464-.095,5.95a32.668,32.668,0,0,1-.945,8.163c-.449,2.693-.993,5.491-1.46,8" transform="translate(211.624 -14.35) rotate(180)" fill="#f1b5ab"/>
    <path id="Fill_3" data-name="Fill 3" d="M-16.827,24.42c.5.57.761.95.761.95s4.678,1.294,8.422-5.835C-3.9,12.391-.982,8.411-.159,2.328A17.485,17.485,0,0,0,0,0,152.14,152.14,0,0,1-8.355,15.666a24.091,24.091,0,0,1-8.472,8.754" transform="translate(211.624 -28.183) rotate(180)" fill="#f5948d"/>
    <path id="Fill_5" data-name="Fill 5" d="M-17.352,1.209C-15.079,3.763-9.82,7.1,0,3.568c-3.621.344-8.1.063-10.155-1.087-2.711-1.526-6.891-3.565-7.151-1.8-.017.131-.037.307-.046.523" transform="translate(225.96 -14.35) rotate(180)" fill="#f5948d"/>
    <path id="Fill_7" data-name="Fill 7" d="M-16.137,35.333c2.584,8.891,9.131,27.144,9.131,27.144s-.361,7.656.359,10.417a2.085,2.085,0,0,0,.336.813c1.181,1.4,1.816-.354,1.816-.354s1.7,10.3,3.688,9.245-.232-16.383-.935-19.192-2.809-23.163-3.276-31S-7.823,2.571-9,0c0,0-1.1.279-5.781,1.219a32.033,32.033,0,0,0-3.955,1.03,20.558,20.558,0,0,0-3.347,1.34c.467,3.39,3.379,22.852,5.942,31.744" transform="translate(87.684 -133.723) rotate(180)" fill="#f1b5ab"/>
    <path id="Fill_9" data-name="Fill 9" d="M-9.726,33.084C-7.142,41.975-.595,60.228-.595,60.228s-.361,7.656.359,10.417C-.272,66.6.071,59.895-.013,59.637-.124,59.288-8.2,31.8-9.38,23.374c-1.1-7.9-1.78-16.537-2.941-23.374a20.558,20.558,0,0,0-3.347,1.34c.467,3.39,3.379,22.852,5.942,31.744" transform="translate(94.095 -135.973) rotate(180)" fill="#f5948d"/>
    <path id="Fill_11" data-name="Fill 11" d="M-91.823,177.707l3.53,2.123.409.242.385.233s.708-1.843,1.864-4.911c4.647-12.387,16.527-44.647,18.024-55.249,1.871-13.226-3.746-21.527-3.746-21.527A282.44,282.44,0,0,0-62.931,70.07c1.993-8.786,6.177-23.48,8.991-33.079l.048-.164c.683-2.339,1.282-4.339,1.742-5.907v-.005c.636-2.139,1.019-3.4,1.019-3.4l.179.095.021.011.016.011.647.333,1.545.807c.015.074.044.148.063.222,8.5,30.445,8.509,30.27,11.7,45.524,3.041,14.509,7.719,27.608,11,40.945,1.676,6.832,5.636,23.221,9.089,37.578,3.284,13.659,6.119,25.481,6.119,25.481l2.192.343.467.079,2.6.418S1.88,129.976-.458,117.568s-11-23.163-11-23.163,1.874-40.592,1.4-55.217c-.09-2.884-.306-5.988-.607-9.13-.01-.206-.036-.412-.058-.618-.813-8.543-2.152-17.191-2.93-21.89-.027-.164-.055-.328-.083-.475-.33-1.959-.533-3.105-.533-3.105s-.636.095-1.78.27c-2.431.348-7.159.96-12.98,1.424-.158.005-.32.027-.475.037-4.945.37-10.625.623-16.344.491a80.02,80.02,0,0,1-7.992-.586c-.179-.032-.348-.052-.522-.068a118.9,118.9,0,0,1-13.8-2.646c-.159-.047-.317-.09-.478-.121C-74.219,1.335-77.9,0-77.9,0s-.2,1.325-.507,3.452c-.026.154-.055.307-.074.465-.655,4.356-1.742,11.579-2.7,17.851-.039.254-.084.507-.124.761-.372,2.445-.739,4.736-1.037,6.6-1.518,9.356-5.616,50.07-6.553,63.639s-2.92,84.938-2.92,84.938" transform="translate(184.069 -157.219) rotate(180)" fill="#ff9202"/>
    <path id="Fill_13" data-name="Fill 13" d="M-16.874,149.069c3.284,13.659,6.12,25.482,6.12,25.482l2.191.343.468.078,2.6.418S1.88,126.006-.458,113.6s-11-23.163-11-23.163,1.874-40.592,1.4-55.217c-.09-2.884-.306-5.988-.607-9.129-.011-.207-.037-.412-.058-.619-.813-8.543-2.152-17.19-2.93-21.89-.027-.164-.055-.328-.082-.475C-14.06,1.146-14.263,0-14.263,0s-.635.095-1.779.27c.4,11.98.72,38.585.33,63.258-.421,25.735.692,33.7.692,33.7s9.6,28.8-1.853,51.843" transform="translate(184.069 -161.189) rotate(180)" fill="#f27700"/>
    <path id="Fill_15" data-name="Fill 15" d="M-.361.324-.4.424l.021.011A.506.506,0,0,1-.361.324" transform="translate(234.622 -184.403) rotate(180)" fill="#892e28"/>
    <path id="Fill_17" data-name="Fill 17" d="M-33.485,144.475c4.646-12.387,16.527-44.647,18.023-55.249C-13.59,76-19.207,67.7-19.207,67.7A282.3,282.3,0,0,0-10.782,39.15C-8.789,30.364-4.6,15.671-1.789,6.071l.048-.164C-1.058,3.568-.459,1.568,0,0L-23.971,66.115s1.022,9.3.787,28.6c-.166,13.639-6.557,37.129-10.3,49.758" transform="translate(236.218 -188.139) rotate(180)" fill="#f27700"/>
    <path id="Fill_19" data-name="Fill 19" d="M-68.554,111.913c-2.452,9.129-1.985,21.875.824,32.3s7.017,29.13,7.017,29.13c.106.053.2.106.291.148.272.143.533.269.771.364.016.011.027.011.045.021.172.059.32.117.468.159,2.191.692,2.751-.58,2.751-.58s3.163-18.364,4.567-33.338,5.5-37.435,6.9-55.1c1.264-15.845,5.056-44.773,5.832-50.56.084-.676.131-1.03.131-1.03s.074.2.207.55v.011c1.077,2.967,6.175,17.043,9.509,26.113C-25.5,70.266-16.723,93.2-16.723,93.2A88.977,88.977,0,0,0-23.4,110.277c-2.463,9.244-.813,20.126,1.523,30.307s7.368,33.807,7.368,33.807c.151.063.293.127.441.184a4.322,4.322,0,0,0,.5.159.979.979,0,0,0,.169.043,5.731,5.731,0,0,0,4.388-.971s.021-.127.048-.354c.261-2.488,1.956-18.248,3.35-31.347C-4.086,127.827,0,96.823,0,96.823S-1.99,74.357-4.334,59.109c-.5-3.337-1.307-7.566-2.262-12.165C-7.814,41.057-9.272,34.579-10.7,28.6c-.72-3.032-1.444-5.936-2.117-8.554-.066-.3-.14-.591-.214-.881-.887-3.469-1.687-6.421-2.294-8.469-.045-.153-.093-.3-.14-.443a16.733,16.733,0,0,0-.908-2.571S-20.3,10.544-33.617,9.509C-49.679,8.263-56.033.666-56.033.666s.076-.227.206-.607A.517.517,0,0,0-55.92,0s-1.2,1.458-2.909,3.749l-.282.364c-1.573,2.112-3.519,4.836-5.364,7.735-.093.127-.177.275-.262.411a60.654,60.654,0,0,0-4.4,8.042C-73,29.172-68.444,50.149-66.8,61.5c1.632,11.341,5.615,32.867,5.615,32.867a82.187,82.187,0,0,0-7.374,17.545" transform="translate(95.746 -157.282) rotate(180)" fill="#ff9202"/>
    <path id="Fill_21" data-name="Fill 21" d="M-61.958,111.913c-2.452,9.129-1.985,21.875.824,32.3s7.017,29.13,7.017,29.13c.106.053.2.106.291.148.272.143.533.269.771.364.016.011.027.011.045.021-1.3-8.385-5.214-35.375-4.034-51.426,1.4-19.188,6.317-22.228,6.317-22.228l.713,2.6c-.185-.7-.489-1.833-.945-3.533-2.574-9.593-6.085-44.457-6.085-44.457S-45.811,32.836-37.7,24.642s16.931-4.958,23.3,1.875C-10.088,31.146-3.912,41,0,46.944-1.217,41.057-2.675,34.579-4.108,28.6c-.72-3.032-1.444-5.936-2.117-8.554-.066-.3-.14-.591-.214-.881C-7.326,15.7-8.126,12.746-8.733,10.7c-.045-.153-.093-.3-.14-.443a16.733,16.733,0,0,0-.908-2.571S-13.7,10.544-27.02,9.509C-43.082,8.263-49.436.666-49.436.666s.076-.227.206-.607A.517.517,0,0,0-49.323,0s-1.2,1.458-2.909,3.749l-.282.364c-1.573,2.112-3.519,4.836-5.364,7.735-.093.127-.177.275-.262.411a60.655,60.655,0,0,0-4.4,8.042c-3.865,8.871.692,29.847,2.339,41.2,1.632,11.341,5.615,32.867,5.615,32.867a82.187,82.187,0,0,0-7.374,17.545" transform="translate(102.343 -157.282) rotate(180)" fill="#ff6f00"/>
    <path id="Fill_23" data-name="Fill 23" d="M-16.423,26.114C-12.68,36.284-3.9,59.219-3.9,59.219A89,89,0,0,0-10.576,76.3c-2.463,9.244-.813,20.126,1.523,30.307s7.368,33.807,7.368,33.807c.151.063.293.127.441.184a4.322,4.322,0,0,0,.5.159.979.979,0,0,0,.169.043c-2.059-9.42-6.579-30.048-6.141-41.807C-6.13,83.549,0,60.387,0,60.387S-12.422,29.456-17.817,14.742-25.933,0-25.933,0c1.077,2.968,6.175,17.044,9.509,26.114" transform="translate(108.568 -191.264) rotate(180)" fill="#ff6400"/>
    <path id="Fill_25" data-name="Fill 25" d="M-52.561,39.283v-.011l.148-.3a5.423,5.423,0,0,0,.179,1.367.818.818,0,0,0,.048.148A7.462,7.462,0,0,0-50.36,43.66c.037.032.063.068.1.1a7.874,7.874,0,0,0,.655.586v.079a97.473,97.473,0,0,1-1.4,13.026,109.518,109.518,0,0,1-3.883,14.726c-.13.38-.206.607-.206.607a17.821,17.821,0,0,0,3.482,2.9c3.416,2.281,9.5,5.212,18.934,5.945,2.038.159,3.864.222,5.494.222,8.936,0,11.745-2.048,11.745-2.048-.945-7.666,1.7-26.183,2.254-29.979.051-.317.085-.533.1-.628v-.006a.139.139,0,0,0,.011-.048v3.01a.4.4,0,0,0,.074-.031,21.21,21.21,0,0,1,3.041-1.193A89.237,89.237,0,0,1,0,48.56s-.095-.845-.271-2.218c-.019-.147-.04-.311-.056-.47A182.993,182.993,0,0,0-3.4,27.615c-1.869-7.487-3.965-20-7.6-22.34A35.283,35.283,0,0,0-24.636.581c-.206-.021-.4-.043-.607-.058a.069.069,0,0,0-.045-.01C-28.377.2-31.145.053-33.636.01c-.172,0-.338,0-.5,0C-45.365-.126-50.613,2.069-52.4,3.046c-.158.09-.3.169-.4.238-.076.043-.142.078-.2.115-1.051.708-3.622,4.447-7.349,11.579C-62.957,20-65.777,28.364-67.227,32.894c-.045.159-.1.306-.15.465v.011c-.523,1.642-.824,2.671-.824,2.671a27.393,27.393,0,0,1,12.5,3.75c1.323.807,2.051,1.477,2.051,1.679Z" transform="translate(96.68 -85.164) rotate(180)" fill="#0075ff"/>
    <path id="Fill_27" data-name="Fill 27" d="M-3.041,5.275A21.121,21.121,0,0,1,0,4.082L-.636,0A3.354,3.354,0,0,0-3,2.973c-.027.591-.037,1.414-.037,2.3" transform="translate(106.648 -132.007) rotate(180)" fill="#0052b9"/>
    <path id="Fill_29" data-name="Fill 29" d="M-8.857,37.018l-.206.607a17.852,17.852,0,0,0,3.482,2.9A72.614,72.614,0,0,0-1.695,23.538C-.683,12.624,0,10.7,0,10.7S-5.882,4.388-4.234,0L-9.67,4.631c1.323.807,2.051,1.477,2.051,1.679l1.093-2.186V4.113l.148-.3A5.413,5.413,0,0,0-6.2,5.179a.966.966,0,0,0,.048.149A7.452,7.452,0,0,0-4.324,8.5c.036.032.063.069.1.1a7.806,7.806,0,0,0,.654.586v.079a97.485,97.485,0,0,1-1.4,13.026A109.518,109.518,0,0,1-8.857,37.018" transform="translate(142.716 -120.323) rotate(180)" fill="#0054b2"/>
    <path id="Fill_31" data-name="Fill 31" d="M-105.325,46.653c.055-.016.331-.1.779-.232.095-.027.2-.064.3-.095.665-.185,1.61-.427,2.756-.665.147-.027.317-.058.475-.079a34.031,34.031,0,0,1,6.6-.654c1.871,0,3.762.09,5.483.21,3.762.28,6.682.718,6.682.718l-.027.227h-.011l-.86,5.983-.037.227s.085,0,.232.005c.581.01,2.17.021,4.409.042,3.754.005,9.3.021,14.889-.047,9.826-.127,18.607-1.183,21.061.052,1.326.654,4.183,2.091,6.661,3.432a28.408,28.408,0,0,1,4.129,2.539,2.242,2.242,0,0,1,.213.222,9.125,9.125,0,0,1,1.115,2.672v.01c.544,2.165.386,4.8-2.984,4.879-.3,0-.6,0-.919-.02a.025.025,0,0,1-.036,0,26.091,26.091,0,0,1-3.07-.311l-.122-.032A51.592,51.592,0,0,1-45.5,63.67a.026.026,0,0,0-.019-.011c-.224-.079-.345-.116-.345-.116s-.111,0-.32.006h-.008a25.7,25.7,0,0,0-3.427.354c-.232.041-.478.078-.729.132a21.186,21.186,0,0,0-3.9,1.14c-2.159.892-8.29,4.066-14.831,7.134-3.221,1.515-6.541,3-9.538,4.182a53.574,53.574,0,0,1-5.51,1.879c-.739.2-1.489.408-2.238.613.433,9.584.834,18.353.834,18.353s1.927.7,5.116,1.625c6.03,1.764,16.537,4.335,26.946,4.567a194.56,194.56,0,0,0,29.845-1.964c1.117-.164,1.734-.259,1.734-.259l1.526-13.685-.927-6.822v-.011c-.194-1.452-.433-3.2-.717-5.333-1.632-12.165-8.237-23.633-8.237-23.633s2.751-.713,11.4,1.055a94.608,94.608,0,0,1,9.43,2.439c3.5,1.1,5.655,2,5.655,2q.508-1.861.956-3.854c.037-.148.064-.306.1-.465C.071,40.534,1.174,25.407-1.644,20.814a.174.174,0,0,0-.035-.049c0-.01,0-.01-.011-.015-3.17-5.132-9.836-10.47-22.537-14.32-5.286-1.615-9.366-2.883-12.7-3.875A64.466,64.466,0,0,0-47.858,0L-58.151.776S-63.17,2.6-69.114,4.826c-4.95,1.848-10.546,3.981-14.422,5.581a25.133,25.133,0,0,0-15.1,15.676c-1.674,4.53-4.166,12.392-5.586,16.98-.066.2-.121.375-.169.549v.011c-.353,1.114-.618,1.979-.776,2.508-.1.317-.15.506-.162.522" transform="translate(176.447 -59.884) rotate(180)" fill="#0078ff"/>
    <path id="Fill_33" data-name="Fill 33" d="M-32.189,4.826C-16.288,11.974-4.3,5.549,0,2.556A64.46,64.46,0,0,0-10.932,0L-21.225.776S-26.244,2.6-32.189,4.826" transform="translate(213.372 -59.884) rotate(180)" fill="#0052b9"/>
    <path id="Fill_35" data-name="Fill 35" d="M-9.412,34.552c3.5,1.1,5.655,2,5.655,2q.508-1.861.956-3.854c.037-.149.064-.307.1-.465C.071,19.769,1.174,4.642-1.645.049A.155.155,0,0,0-1.679,0c.412,8.385-3.287,25.8-7.733,34.552" transform="translate(176.447 -80.649) rotate(180)" fill="#0054b2"/>
    <path id="Fill_37" data-name="Fill 37" d="M-66,6.674c.433,9.584.834,18.353.834,18.353s1.927.7,5.116,1.625c-.982-6.008-2.442-15.338-2.546-18.516a24.466,24.466,0,0,0,6.944-2.65s6.1,8.31,23.448,11.4,28.263,2.793,28.263,2.793l.682,9.572C-2.144,29.092-1.526,29-1.526,29L0,15.312-.927,8.49V8.48c-13.572-1.225-42.3-3.817-42.989-3.8-.342,0-2.384-2.074-4.8-4.678-3.221,1.515-6.542,3-9.539,4.182a53.514,53.514,0,0,1-5.51,1.879c-.739.2-1.489.407-2.238.613" transform="translate(196.806 -132.192) rotate(180)" fill="#0052b9"/>
    <path id="Fill_39" data-name="Fill 39" d="M0,26.721c-.055-2.545-.09-5.5-.084-8.728C-.037,7.091-.084,0-.084,0l-10.3,19.52c3.762.28,6.682.718,6.682.718l-.027.227h-.011L-4.6,26.447l-.037.227s.084,0,.232,0c.581.011,2.171.022,4.409.043" transform="translate(254.994 -85.502) rotate(180)" fill="#0052b9"/>
    <path id="Fill_41" data-name="Fill 41" d="M-.242,0C-.884.617-7.487,19.531-8.774,26.674L0,32.451l-3.854-4.689S-3.69,21.69-2.74,14.879-.242,0-.242,0" transform="translate(203.948 -90.607) rotate(180)" fill="#0052b9"/>
    <path id="Fill_43" data-name="Fill 43" d="M-4.365,176.17h0c.726-5.083,2.094-15.2,3.1-25.832C.053,136.478.344,126.3-.4,120.076a59.416,59.416,0,0,0-4.88-18.041A30.427,30.427,0,0,0-9.252,95.4c.023-2.6.223-47.7-.111-61.918a78.32,78.32,0,0,0-.692-8.564c1.074.841,2.155,1.659,3.126,2.366-.008-.151-.024-.3-.04-.454v-.008c-.006-.052-.011-.1-.016-.157-1.107-.811-2.168-1.62-3.152-2.407A85.3,85.3,0,0,0-14.78,5.623c1.871-.283,3.6-.583,4.863-.845-.027-.162-.056-.325-.082-.473-1.591.312-3.276.605-5.008.87a.165.165,0,0,0-.027-.038.249.249,0,0,0-.121-.032.226.226,0,0,0-.2.116c-2.655.4-5.632.757-8.608,1.019-.452-1.065-.888-2.16-1.331-3.347-.1,0-.2.013-.294.022l-.182.015c.4,1.1.841,2.222,1.31,3.348-3.8.319-7.61.481-11.314.481-3.393,0-6.741-.137-9.95-.407-.98-.078-1.943-.179-2.875-.276l-.392-.041-.031-.091C-49.474,4.636-49.9,3.4-50.1,2.836c-.195-.035-.374-.055-.523-.069.044.1.267.741.6,1.714l.02.058c.148.427.317.913.5,1.439A137.56,137.56,0,0,1-65.948,3.094c.548-1.049,1.062-2.049,1.526-2.973C-64.611.065-64.763.027-64.9,0c-.431.858-.961,1.889-1.533,2.983-2.736-.661-5.434-1.413-8.248-2.3L-74.7.773c-.021.121-.043.246-.058.373,1.644.529,4.381,1.348,8.084,2.255-2.6,4.867-6.585,11.525-10.787,15.6-.022.146-.047.293-.071.436v.013c-.017.1-.035.208-.051.312,4.44-4.051,8.65-11.063,11.4-16.231a141.291,141.291,0,0,0,16.846,2.94c.638,1.853,1.4,4.089,2.067,6.061l.032.1c.412,1.212.768,2.258,1.036,3.042a.235.235,0,0,0,.228.165.175.175,0,0,0,.071-.012.239.239,0,0,0,.136-.126.224.224,0,0,0,0-.174c-1.039-3.084-2.186-6.448-3.067-9,1.166.123,2.167.217,3.057.291,3.115.27,6.339.4,9.857.4,3.83,0,7.747-.165,11.643-.491a43.193,43.193,0,0,0,6.541,11.136,57.674,57.674,0,0,0,7.16,6.653A81.658,81.658,0,0,1-9.833,33.5c.348,14.646.12,61.589.116,62a.232.232,0,0,0,.063.159c.067.073,6.793,7.738,8.786,24.483,1.724,14.387-2.6,46.467-3.964,55.957l.466.078ZM-15.259,5.693h0a88.918,88.918,0,0,1,4.585,18.136,55.847,55.847,0,0,1-6.7-6.288,40.83,40.83,0,0,1-6.4-10.861c2.936-.253,5.8-.585,8.519-.986Z" transform="translate(187.8 -159.991) rotate(180)" fill="#eff3f9"/>
    <path id="Fill_45" data-name="Fill 45" d="M-39.808,155.148l.409.242c.074-.242.169-.507.264-.807,5.887-18.316,9.62-31.289,11.119-38.56.457-2.254.972-4.472,1.478-6.615,2.469-10.56,4.81-20.529,1.336-36L-5.454,12.309l.048-.163,2.977-9.2.008-.042a.113.113,0,0,0-.008-.08l.648.455L-.369,4.289a.283.283,0,0,0,.132.043A.077.077,0,0,0-.174,4.31a.2.2,0,0,0,.132-.079A.246.246,0,0,0-.1,3.9L-5.538.044A.238.238,0,0,0-5.866.1a.232.232,0,0,0,.058.323l3.1,2.207a.216.216,0,0,0-.159.143l-22.8,70.55a.215.215,0,0,0,0,.116C-22.207,88.853-24.526,98.784-27,109.3c-.5,2.149-1.02,4.378-1.489,6.632-1.479,7.254-5.214,20.223-11.1,38.517-.081.27-.156.507-.222.7" transform="translate(232.554 -181.901) rotate(180)" fill="#a6ddeb"/>
    <path id="Fill_47" data-name="Fill 47" d="M-9.042,0C-6.275.871-1.212,4.066,0,11.79H-15.245S-16.855,3.628-18.154,1Z" transform="translate(16 -334.857) rotate(180)" fill="#0050c0"/>
    <path id="Fill_49" data-name="Fill 49" d="M-72.852,24.582c1.648,1.124,18.665,10.4,33.9,12.3,16.02,1.99,23.976,2.218,29.367-4.335C-4.214,25.992,0,6.219,0,6.219s-.834-1.13-5.081-2.634a58.409,58.409,0,0,0-6.841-1.917C-22.218-.677-27.254.136-27.254.136c-.1,1.78-.346,4.652-.582,7.307.813,1.115,3.391,7.444-1.869,7.561s-12.4-2.556-12.4-2.556a25.076,25.076,0,0,0-8.348,1.626c-.011.005-.032.005-.037.016-2.463,1.019-10.016,4.958-17.485,8.357-1.644.751-3.294,1.479-4.876,2.133" transform="translate(180.204 -110.978) rotate(180)" fill="#f1b5ab"/>
    <path id="Fill_51" data-name="Fill 51" d="M-80.519,26.859c.111,2.783.749,5.1,2.18,6.584,4.829,5.053,13.97,2.82,22.219.613.749-.206,1.5-.411,2.238-.613a60.522,60.522,0,0,0,7.513-2.693c8.76-3.654,19.354-9.245,22.361-10.491l0-.011c.011,0,.022-.005.032-.005a25.082,25.082,0,0,1,8.348-1.626s7.132,2.661,12.4,2.556a3.154,3.154,0,0,0,2.7-1.183c1.32-1.922-.232-5.554-.834-6.378-.821-1.108-8.543-4.968-11-6.193s-11.236-.18-21.061-.053-19.53,0-19.53,0l.048-.333V7.011l.887-6.082S-54.631.538-58.095.263C-59.966.111-62.081,0-64.177,0A37.293,37.293,0,0,0-75.083,1.726v.011c-2.449,7.534-5.725,17.915-5.435,25.122" transform="translate(206.688 -104.811) rotate(180)" fill="#f1b5ab"/>
    <path id="Fill_53" data-name="Fill 53" d="M-15.793.355s.014-.127.037-.354a15.251,15.251,0,0,1,3.474.354C-7.6,1.411,0,8.036,0,8.036l-21.292.037s.161-6.378,0-7.134a5.552,5.552,0,0,0,5.5-.585" transform="translate(88.961 -330.733) rotate(180)" fill="#d64e27"/>
    <path id="Fill_55" data-name="Fill 55" d="M-3.4.111,0,9.239s-5.261.238-10.52.048A69.858,69.858,0,0,1-7.724,0a3.316,3.316,0,0,0,.3.153C-4.171,1.864-3.4.111-3.4.111" transform="translate(148.74 -330.623) rotate(180)" fill="#d64e27"/>
    <path id="Fill_57" data-name="Fill 57" d="M-1.023.2c2.3,1.146.971,12.16-6.553,10.934A51.913,51.913,0,0,1-2.745.233,1.82,1.82,0,0,1-1.023.2" transform="translate(205.146 -28.911) rotate(180)" fill="#f1b5ab"/>
    <path id="Fill_59" data-name="Fill 59" d="M-.1,3.646C.49,2.473-1.617.716-5.71.134s-5.617.935-5.617.935S-11.652,2-7.568,2.358A45.94,45.94,0,0,1-.1,3.646" transform="translate(216.137 -23.829) rotate(180)" fill="#441211"/>
    <path id="Fill_61" data-name="Fill 61" d="M-.161,2.865C.852,2.216-3.087-.414-6.947.056V1.888s5.5,1.795,6.785.977" transform="translate(237.244 -21.453) rotate(180)" fill="#441211"/>
    <path id="Fill_63" data-name="Fill 63" d="M0,2.959S-5.966-.224-11.463.013s-7.6,5.418-7.6,5.418L0,5.509Z" transform="translate(189.559 -333.625) rotate(180)" fill="#d64e27"/>
    <g id="Group_67" data-name="Group 67" transform="translate(271.098 -332.364)">
      <path id="Clip_66-2" data-name="Clip 66" d="M0,0H-20.824V6.527H0Z" transform="translate(0.47 -0.242) rotate(180)" fill="none"/>
      <g id="Group_67-2" data-name="Group 67" clip-path="url(#clip-path)">
        <path id="Fill_65" data-name="Fill 65" d="M0,4.912S-4.329-.119-10.18,0s-10.644,6.22-10.644,6.22S-1.639,6.661,0,6.485Z" transform="translate(0.47 -0.242) rotate(180)" fill="#d64e27"/>
      </g>
    </g>
    <g id="Group_70" data-name="Group 70" transform="translate(204.286 -0.585)">
      <path id="Clip_69-2" data-name="Clip 69" d="M0,0H-42.509V56.886H0Z" transform="translate(0.719 -0.174) rotate(180)" fill="none"/>
      <g id="Group_70-2" data-name="Group 70" clip-path="url(#clip-path-2)">
        <path id="Fill_68" data-name="Fill 68" d="M-40.807,36.911c-1.966,4.948-3.062,10.624,2.556,15.307a13.877,13.877,0,0,0,1.673,1.193,22.446,22.446,0,0,0,5.861,2.477,26.364,26.364,0,0,0,11.072.691c.254-.046.512-.084.746-.142.3-.068.579-.148.861-.232a10.449,10.449,0,0,0,1.313-.481c5.148-2.339,7.14-7.835,8.546-14.562.129-.633.289-1.252.467-1.869a50.946,50.946,0,0,1,4.826-10.9c.76-1.367,1.444-2.566,1.948-3.548C.863,21.379.357,15.032-5,8.728h-.008A.1.1,0,0,0-5.027,8.7C-10.407,2.381-16.144.422-21.872.042-27.141-.306-35.912,1.568-40,4.25a4.791,4.791,0,0,0-1.777,2.344c-1.584,3.992-.19,10.872.4,13.686.364,1.753.877,3.907,1.291,5.624s.739,3.01.739,3.01c1.328-4.029.834-12.867,1.086-14.636s4.44.27,7.151,1.8,9.584,1.515,13.216.58,5.38-1.4,7.373.359c1.806,1.59,4.1,5.8,3.886,11.125v.011c-.022.528-.066,1.057-.143,1.6-.823,6.083-3.743,10.063-7.486,17.207-2,3.8-4.261,5.212-5.935,5.7-.011,0-.011,0-.016.011a4.937,4.937,0,0,1-2.471.126,16.111,16.111,0,0,0-7.143-5.369,7.311,7.311,0,0,0-7.72,1.4c-2.574-2-3.258-11.917-3.258-11.917" transform="translate(0.719 -0.173) rotate(180)" fill="#591813"/>
      </g>
    </g>
    <path id="Fill_71" data-name="Fill 71" d="M0,2.106V6.082L-15.559,4.1V0Z" transform="translate(126.396 -105.297) rotate(180)" fill="#0052b9"/>
    <path id="Fill_73" data-name="Fill 73" d="M0,2.572-1.052,8.423S-13.921,5.144-18.366,5.5L-16.379,0S-9.943-.121,0,2.572" transform="translate(235.537 -91.467) rotate(180)" fill="#0050c0"/>
    <path id="Fill_75" data-name="Fill 75" d="M-125.8,164.439a7.1,7.1,0,0,0,1.576-.163,5.661,5.661,0,0,0,4.4-4.3c1.119-4.334-1.679-10.767-6.51-14.963a23.968,23.968,0,0,0-11.125-5.523,218.616,218.616,0,0,1-3.1-25.7,220.594,220.594,0,0,1-.414-26.539c1.187-20.321,9.04-42.927,21.006-60.472A74.723,74.723,0,0,1-111.8,16.688a51.1,51.1,0,0,1,8.172-6.869c5.082-3.38,10.2-5.166,14.793-5.166a14.8,14.8,0,0,1,5.148.871C-77.6,7.779-67.568,22.052-56.852,43.7c5.6,11.311,27.716,56.541,33.5,71.184,5.5,13.931,18.657,46.969,18.84,47.414a2.315,2.315,0,0,0,2.164,1.481,2.316,2.316,0,0,0,.871-.17,2.319,2.319,0,0,0,1.285-1.244,2.332,2.332,0,0,0,.025-1.8c-.168-.409-13.252-33.282-18.833-47.4C-24.815,98.446-47.028,52.99-52.658,41.622-60.847,25.086-72.6,4.638-82.065,1.137A19.121,19.121,0,0,0-88.715,0,29.681,29.681,0,0,0-101.8,3.407c-7.855,3.946-15.476,11.116-22.037,20.734-12.422,18.214-20.576,41.706-21.812,62.842-.829,14.183.624,36.946,3.307,51.822-1.511-.118-3.125-.175-4.932-.175-2.418,0-5.146.1-8.585.318a2.346,2.346,0,0,0-2.192,2.482,2.337,2.337,0,0,0,2.361,2.194q.061,0,.123,0c3.209-.2,5.9-.3,8.229-.3a54.673,54.673,0,0,1,5.978.286c.232,1,.472,1.934.712,2.772,1.988,6.926,4.615,11.957,7.808,14.955A10.226,10.226,0,0,0-125.8,164.439Zm-10.478-19.815h0a18.81,18.81,0,0,1,6.875,3.922c4.1,3.561,5.564,8.25,5.047,10.265-.161.627-.432.8-.845.892a3.2,3.2,0,0,1-.66.068c-1.654,0-3.5-1.236-5.211-3.481a34.912,34.912,0,0,1-5.083-11.208c-.021-.082-.044-.165-.066-.247s-.039-.142-.057-.212Z" transform="translate(37.715 -170.735) rotate(180)" fill="#0052b9"/>
    <path id="Fill_77" data-name="Fill 77" d="M-14.541,0C-12.59.766.116,3.585,0,5.851s-17.159-1.9-17.159-1.9Z" transform="translate(23.679 -330.454) rotate(180)" fill="#773b3d"/>
    <path id="Fill_79" data-name="Fill 79" d="M-58.376,0l1.4,14.774,1.085,11.467,2.173,22.9c0,3.426,10.829,6.2,24.182,6.2,1.434,0,2.838-.027,4.2-.095C-13.982,54.743-5.354,52.2-5.354,49.14c0,0,1.187-11.178,2.445-22.846.047-.475.1-.944.147-1.42.364-3.39.729-6.786,1.077-9.921C-.806,6.832-.085.443,0,.285-.676,2.016-4.689,3.543-10.687,4.572A111.716,111.716,0,0,1-29.135,5.966c-15.8,0-28.676-2.65-29.241-5.966" transform="translate(189.665 -284.846) rotate(180)" fill="#0072ff"/>
    <path id="Fill_81" data-name="Fill 81" d="M-25.328,54.964c11.346-.507,19.974-3.047,19.974-6.109,0,0,1.187-11.178,2.444-22.846.048-.475.1-.944.148-1.42.364-3.39.729-6.785,1.077-9.921C-.8,6.548-.084.158,0,0-.676,1.732-4.688,3.258-10.687,4.287c-3.231,16.183-8.67,40.227-14.641,50.677" transform="translate(189.665 -285.131) rotate(180)" fill="#0050c0"/>
    <path id="Fill_83" data-name="Fill 83" d="M-58.5,6.2c0,3.426,13.1,6.193,29.259,6.193a112.228,112.228,0,0,0,18.71-1.431C-4.681,9.921-.769,8.411-.1,6.711A1.478,1.478,0,0,0,0,6.2C0,4.034-5.2,2.133-13.1,1.03A117.759,117.759,0,0,0-29.238,0C-45.392,0-58.5,2.772-58.5,6.2" transform="translate(189.562 -278.42) rotate(180)" fill="#004dc7"/>
    <path id="Fill_85" data-name="Fill 85" d="M-55.286,0-54.2,11.467c4.118,1.036,12.41,2.546,27.331,3.126a102.27,102.27,0,0,0,12.334-.207A44.03,44.03,0,0,0-1.225,11.52c.048-.475.1-.944.147-1.42C-.712,6.711-.348,3.315,0,.179A50.211,50.211,0,0,1-11.848,3.136a98.312,98.312,0,0,1-15.66.813C-41.959,3.659-50.729,1.552-55.286,0" transform="translate(191.35 -299.619) rotate(180)" fill="#0793ff"/>
    <path id="Fill_87" data-name="Fill 87" d="M0,12.3A12.3,12.3,0,0,0-12.307,0,12.3,12.3,0,0,0-24.615,12.3,12.308,12.308,0,0,0-12.307,24.609,12.31,12.31,0,0,0,0,12.3" transform="translate(225.5 -321) rotate(180)" fill="#773b3d"/>
    <path id="Fill_89" data-name="Fill 89" d="M-9.5,19A9.511,9.511,0,0,0,0,9.5,9.509,9.509,0,0,0-9.5,0,9.508,9.508,0,0,0-19,9.5,9.509,9.509,0,0,0-9.5,19" transform="translate(228.309 -323.803) rotate(180)" fill="#fff"/>
    <path id="Fill_91" data-name="Fill 91" d="M0,6.378A6.377,6.377,0,0,0-6.378,0a6.377,6.377,0,0,0-6.374,6.378,6.377,6.377,0,0,0,6.374,6.377A6.377,6.377,0,0,0,0,6.378" transform="translate(192.716 -333.622) rotate(180)" fill="#773b3d"/>
    <path id="Fill_93" data-name="Fill 93" d="M-3.569,7.138A3.575,3.575,0,0,0,0,3.569,3.571,3.571,0,0,0-3.569,0,3.57,3.57,0,0,0-7.135,3.569,3.574,3.574,0,0,0-3.569,7.138" transform="translate(195.526 -336.431) rotate(180)" fill="#fff"/>
    <path id="Fill_95" data-name="Fill 95" d="M-5.076.238c2.9,5.369,4.586,17.323,4.6,17.461a.238.238,0,0,0,.233.206h.031A.242.242,0,0,0,0,17.64C-.09,17.07-1.729,5.428-4.675,0c-.158.09-.3.169-.4.238" transform="translate(144.408 -88.211) rotate(180)" fill="#004395"/>
    <path id="Fill_97" data-name="Fill 97" d="M-7.6,12.017l.082,3.031.019.544.58,20.635a.235.235,0,0,0,.235.222h.008a.221.221,0,0,0,.228-.232l-.687-24.092L-.1,7.287A.2.2,0,0,0,0,7.118a.222.222,0,0,0-.055-.185C-2.015,4.779-4.945,1.478-6.033.058-6.238.037-6.434.015-6.64,0c.935,1.351,4,4.788,6.056,7.049L-7.5,11.807a.26.26,0,0,0-.1.21" transform="translate(115.283 -85.687) rotate(180)" fill="#004395"/>
    <path id="Fill_99" data-name="Fill 99" d="M-.233,16.392a.23.23,0,0,0,.2-.116.23.23,0,0,0-.084-.317L-11.468,9.5-7.918.32A.24.24,0,0,0-8.053.014a.233.233,0,0,0-.3.142l-3.622,9.366a.241.241,0,0,0,.106.291L-.349,16.366a.232.232,0,0,0,.116.026" transform="translate(122.419 -84.923) rotate(180)" fill="#004395"/>
    <path id="Fill_101" data-name="Fill 101" d="M-46.319,170.283v0c-.775-3.662-2.758-13.254-4.418-23.218-2.125-12.754-2.982-21.543-2.546-26.121,1.148-12.054,8.178-24.125,8.248-24.235a.246.246,0,0,0,.029-.148l0-.033c-.119-1.136-1.185-11.52-1.952-26.035-.281-5.391-1.029-11.441-1.63-16.3l-.022-.177c-1.309-10.778-2.663-21.922-.812-30.02A102.622,102.622,0,0,1-44.7,8.955a21.821,21.821,0,0,0,8.833-3.606,57.807,57.807,0,0,0,10.977,2.7,64.26,64.26,0,0,0,9.137.676,50.7,50.7,0,0,0,9.078-.776A49.367,49.367,0,0,0,0,16.3c-.066-.3-.142-.6-.214-.881A51.011,51.011,0,0,1-6.186,7.856a35.888,35.888,0,0,0,3.677-.908c-.046-.155-.091-.3-.14-.444a44.673,44.673,0,0,1-13.1,1.759,63.775,63.775,0,0,1-9.063-.671,56.778,56.778,0,0,1-12.8-3.4A52.971,52.971,0,0,1-46.007,0l-.283.364c1.293.811,2.647,1.571,4.024,2.26a45.363,45.363,0,0,0-2.779,5.914,17.067,17.067,0,0,1-2.322.162,15.454,15.454,0,0,1-4.287-.6c-.066.091-.129.194-.189.293l-.072.118a15.91,15.91,0,0,0,4.562.655,16.187,16.187,0,0,0,2.112-.138,101.462,101.462,0,0,0-4.633,14.847c-1.878,8.228-.5,19.476.825,30.353l0,.013c.661,5.432,1.345,11.047,1.626,16.267.8,15.363,1.926,25.92,1.938,26.024a74.334,74.334,0,0,0-3.925,8.162,57.6,57.6,0,0,0-4.333,16.2c-.433,4.558.4,13.245,2.479,25.82,1.667,10.087,3.655,19.717,4.432,23.389l.1.039.007,0c.141.053.275.1.4.137ZM-41.862,2.819a54.726,54.726,0,0,0,5.454,2.334,20.743,20.743,0,0,1-8.086,3.3,45.617,45.617,0,0,1,2.632-5.634h0Z" transform="translate(108.568 -161.032) rotate(180)" fill="#eff3f9"/>
    <path id="Fill_103" data-name="Fill 103" d="M-25.729,4.161a.237.237,0,0,0,.206.264.244.244,0,0,0,.264-.2,1.424,1.424,0,0,1,.074-.275V3.945A26.205,26.205,0,0,1-23.67.793c1.247,3.29,8.617,22.836,12.334,34.721C-9,42.99-5.8,51.512-3.688,57.141-2.35,60.7-1.2,63.782-1.154,64.257-2.461,65.778-7.1,78.519-7.667,90.071-8.2,100.943-2.434,133.889-.5,144.549a4.37,4.37,0,0,0,.5.159C-1.882,134.327-7.73,101-7.2,90.093c.618-12.5,5.6-24.726,6.352-25.534a.238.238,0,0,0,.114-.095c.171-.233.011-.761-2.519-7.482-2.114-5.628-5.306-14.14-7.642-21.611C-14.937,22.415-23.332.371-23.417.149a.227.227,0,0,0-.2-.147.22.22,0,0,0-.227.115,24.279,24.279,0,0,0-1.89,4.044" transform="translate(109.315 -187.309) rotate(180)" fill="#a6ddeb"/>
    <path id="Fill_105" data-name="Fill 105" d="M-6.913,19.878a.225.225,0,0,0,.222-.158C-4.236,12.286-.467,1.056-.067.4A.224.224,0,0,0-.029.126a.235.235,0,0,0-.317-.1c-.111.058-.4.211-6.481,18.617L-9.49.918a.223.223,0,0,0-.263-.2.235.235,0,0,0-.2.27l2.8,18.685a.233.233,0,0,0,.212.2Z" transform="translate(223.069 -75.095) rotate(180)" fill="#00419b"/>
    <path id="Fill_107" data-name="Fill 107" d="M-2.171,17.081a.234.234,0,0,0,.233-.206L0,.265A.242.242,0,0,0-.209,0,.244.244,0,0,0-.471.207L-2.4,16.818a.238.238,0,0,0,.207.263Z" transform="translate(227.812 -77.893) rotate(180)" fill="#00419b"/>
    <path id="Fill_111" data-name="Fill 111" d="M-3.775,6.085h.032a.227.227,0,0,0,.229-.2A6.642,6.642,0,0,1-3.16,4.5a5.042,5.042,0,0,0,1.125.152,1.1,1.1,0,0,0,.887-.284c.46-.552-.332-1.616-.694-2.048a.129.129,0,0,0-.047-.023.171.171,0,0,1-.036-.015A10.27,10.27,0,0,1-.122.438L-.1.419A.213.213,0,0,0,0,.278.234.234,0,0,0-.045.1.233.233,0,0,0-.237,0,.241.241,0,0,0-.37.04,9.5,9.5,0,0,0-3.976,5.817a.241.241,0,0,0,.2.268Zm1.588-3.448c.443.525.828,1.247.68,1.427a.687.687,0,0,1-.5.123,4.386,4.386,0,0,1-.983-.134,8.907,8.907,0,0,1,.8-1.416Z" transform="translate(206.912 -31.527) rotate(180)" fill="#983222"/>
    <path id="Fill_113" data-name="Fill 113" d="M-3.732,15.778a7.255,7.255,0,0,0,3.615-.987.239.239,0,0,0,.087-.323.234.234,0,0,0-.317-.09,6.585,6.585,0,0,1-5.848.438,20.74,20.74,0,0,0,3.247-5.85c1.222-3.532.055-8.575.005-8.786A.229.229,0,0,0-3.225.007.236.236,0,0,0-3.4.286c.014.047,1.186,5.122.008,8.527a19.969,19.969,0,0,1-3.353,5.93.244.244,0,0,0-.055.191.223.223,0,0,0,.115.164,6.5,6.5,0,0,0,2.952.68" transform="translate(232.555 -24.665) rotate(180)" fill="#983222"/>
    <path id="Fill_115" data-name="Fill 115" d="M0,0C-.232,0-5.069,1.484-8.966.776A47.651,47.651,0,0,0-14.773,0s1.985,5.766,6.507,6S0,0,0,0" transform="translate(225.943 -41.435) rotate(180)" fill="#fff"/>
    <path id="Fill_117" data-name="Fill 117" d="M-1.96,2.895c-.087,1.636.279,2.978.812,3S-.1,4.631-.012,3.006-.292.028-.83,0-1.875,1.268-1.96,2.895" transform="translate(221.386 -28.029) rotate(180)" fill="#601112"/>
    <path id="Fill_119" data-name="Fill 119" d="M-1.959,2.9c-.087,1.626.277,2.972.815,3S-.1,4.636-.013,3-.288.032-.827,0-1.872,1.273-1.959,2.9" transform="translate(237.245 -25.959) rotate(180)" fill="#601112"/>
    <path id="Fill_121" data-name="Fill 121" d="M-.232,2.226a.235.235,0,0,0,.227-.191.23.23,0,0,0-.18-.274C-10.982-.562-15.4.072-15.578.1a.231.231,0,0,0-.2.264.234.234,0,0,0,.27.2c.043-.006,4.53-.645,15.225,1.663a.154.154,0,0,0,.049.005" transform="translate(191.899 -110.652) rotate(180)" fill="#00419b"/>
    <path id="Fill_123" data-name="Fill 123" d="M-27.778.54a.441.441,0,0,0,.039.084.211.211,0,0,0,.232.111A45.346,45.346,0,0,1-.1,6.586c.037-.148.064-.306.1-.465A45.977,45.977,0,0,0-27.582.266a.218.218,0,0,0-.129.079.21.21,0,0,0-.066.2" transform="translate(179.148 -106.757) rotate(180)" fill="#00419b"/>
    <path id="Fill_125" data-name="Fill 125" d="M-23.126,2.31c8.612-3.369,20.8-1.171,22.6-.812.142.031.225.047.234.047a.247.247,0,0,0,.275-.153c0-.005.005-.02.005-.027A.141.141,0,0,0,0,1.3a.265.265,0,0,0-.188-.216c-.008,0-.092-.016-.235-.048-1.806-.354-13.812-2.524-22.535.724-.066.2-.121.375-.169.549" transform="translate(257.708 -101.186) rotate(180)" fill="#00419b"/>
    <path id="Fill_127" data-name="Fill 127" d="M-12.991,23.085a.13.13,0,0,0,.074.052.178.178,0,0,0,.106.027.178.178,0,0,0,.111-.032c4.258-2.3,10.175-3.183,12.7-3.474-.018-.147-.039-.311-.055-.47a41.424,41.424,0,0,0-12.083,3.136l.177-.279C-11.175,21.559-1.5,15.176-5.4.17A.237.237,0,0,0-5.681.007.224.224,0,0,0-5.848.3C-1.89,15.5-12.138,21.617-12.242,21.67a.229.229,0,0,0-.084.074l-.486.755-.01,0v.006l-.185.3a.227.227,0,0,0,.016.28" transform="translate(96.952 -111.848) rotate(180)" fill="#004395"/>
    <path id="Fill_129" data-name="Fill 129" d="M-28.882,5.153a21.315,21.315,0,0,1,14.757,5.728,1.273,1.273,0,0,0,.058.185c-.011.011-.011.011,0,.011a10.418,10.418,0,0,0,.327,1.055.886.886,0,0,0,.047.149,10.291,10.291,0,0,0,1.827,3.172c.036.032.063.069.1.1a6.513,6.513,0,0,0,.654.665,9.427,9.427,0,0,0,1.462,1.056,11.23,11.23,0,0,0,5.576,1.362A14.337,14.337,0,0,0-.16,18.116a.224.224,0,0,0,.15-.291A.23.23,0,0,0-.3,17.678c-.045.011-5.142,1.468-9.113-.813a9.279,9.279,0,0,1-4.261-6.072L-8.5.332A.224.224,0,0,0-8.613.026a.228.228,0,0,0-.307.1l-5.063,10.243a21.8,21.8,0,0,0-14.749-5.68c-.045.159-.1.306-.15.465" transform="translate(135.175 -113.369) rotate(180)" fill="#004395"/>
    <path id="Fill_131" data-name="Fill 131" d="M-11.354,21.167a3.179,3.179,0,0,1,.538-.427C-8.432,19.1,0,15.084,0,15.084L-2.348,9.377C-4.118,5.111-6.244,0-6.317,0h-.029c-.282.084-.557.164-.861.232-.235.058-.493.1-.746.142a42.927,42.927,0,0,1-1.077,10.65c-.011.048-.027.09-.037.137-1.342,4.857-2.286,10-2.286,10" transform="translate(216.696 -56.964) rotate(180)" fill="#3a94fd"/>
    <path id="Fill_133" data-name="Fill 133" d="M-14.929,15.36C-11.138,16.864-.768,21.437,0,21.78c-.568-.364-2.368-5.053-4.118-10.174C-5.531,7.481-6.913,3.073-7.6.427l-.04-.106L-8.714,0l-4.06,10.042Z" transform="translate(228.095 -56.335) rotate(180)" fill="#3a94fd"/>
    <path id="Fill_135" data-name="Fill 135" d="M-36.577,44.684a22.46,22.46,0,0,0,5.861,2.477,26.364,26.364,0,0,0,11.072.691c.254-.047.512-.084.746-.143.3-.068.579-.147.861-.232A10.512,10.512,0,0,0-16.724,47c5.148-2.339,7.141-7.835,8.546-14.563.129-.633.29-1.251.468-1.869a50.922,50.922,0,0,1,4.826-10.9c.76-1.368,1.443-2.566,1.947-3.549C.863,12.651.357,6.3-5,0A34.688,34.688,0,0,1-6.634,19.409v.011a16.011,16.011,0,0,1-.143,1.6c-.823,6.083-3.744,10.063-7.486,17.207-2,3.8-4.261,5.211-5.936,5.7-.01,0-.01,0-.015.011-3.031,1.6-9.266,2.783-16.363.744" transform="translate(205.006 -9.487) rotate(180)" fill="#441211"/>
    <path id="Fill_137" data-name="Fill 137" d="M-3.116,13.685c.364,1.754.877,3.907,1.291,5.624s.739,3.01.739,3.01C.242,18.289-.251,9.451,0,7.682A28.771,28.771,0,0,1-3.517,0c-1.584,3.991-.19,10.871.4,13.685" transform="translate(243.266 -7.354) rotate(180)" fill="#441211"/>
    <path id="Fill_143" data-name="Fill 143" d="M-10.528,9.931C-4.681,8.891-.769,7.382-.1,5.68A1.474,1.474,0,0,0,0,5.17C0,3-5.2,1.1-13.1,0a13.041,13.041,0,0,1,2.575,9.931" transform="translate(189.562 -279.45) rotate(180)" fill="#003492"/>
    <path id="Fill_145" data-name="Fill 145" d="M-1.4,16.612a1.419,1.419,0,0,0,.528-.1A1.406,1.406,0,0,0-.1,14.679L-5.02,2.63A1.383,1.383,0,0,0-6.24,1.76L-37.828,0A1.439,1.439,0,0,0-39.25.989l-3.857,12.639a1.4,1.4,0,0,0,.932,1.753,1.4,1.4,0,0,0,1.752-.929l3.538-11.584,29.6,1.648L-2.7,15.741a1.4,1.4,0,0,0,1.3.872" transform="translate(195.875 -267.653) rotate(180)" fill="#006fff"/>
    <path id="Fill_147" data-name="Fill 147" d="M-52.082,16.654a37.806,37.806,0,0,0,3.681,7.26A54.708,54.708,0,0,0-37.219,37.367c8.649,7.128,23.279,12.74,23.279,12.74.465,3.278,3.274,7.492,4.557,7.376a1.282,1.282,0,0,0,.206-.042c.993-.38.261-2.761.261-2.761s2.464,4.678,3.867,4.456c1.336-.216-.723-4.388-.918-4.789C-4.32,56.581-1.426,59.823-.492,59s-3.857-8.775-3.857-8.775S-.84,52.563-.138,52.093s-1.4-2.682-3.505-4.789-6.674-2.571-7.725-2.7c-1.045-.111-5.613-5.027-11.586-11.81-.093-.1-.177-.207-.273-.307l-.01-.01c-5.93-6.806-13.982-17.466-13.982-17.466.581-.824,4.905-9.826,4.905-9.826A11.865,11.865,0,0,0-34.193,3.9a36.3,36.3,0,0,0-5.254-2.455c-5.38-2.107-7.6-1.294-7.6-1.294-1.18,1.4-5.39,14.858-5.037,16.5" transform="translate(117.836 -121.05) rotate(180)" fill="#f1b5ab"/>
    <path id="Fill_149" data-name="Fill 149" d="M-15.629,11.811S-6.954,22.313,0,28.575c-5.93-6.806-13.982-17.466-13.982-17.466.582-.824,4.905-9.826,4.905-9.826A11.865,11.865,0,0,0-10.956,0c-3.569,5.6-4.551,9.895-4.672,11.811" transform="translate(141.074 -124.954) rotate(180)" fill="#f5948d"/>
    <path id="Fill_151" data-name="Fill 151" d="M-39.225,0A54.724,54.724,0,0,0-28.043,13.454c8.649,7.127,23.28,12.74,23.28,12.74C-4.3,29.472-1.49,33.686-.207,33.57A1.381,1.381,0,0,0,0,33.528a48.769,48.769,0,0,1-3.77-8.5A131.321,131.321,0,0,1-23.361,13.913,86.689,86.689,0,0,1-39.225,0" transform="translate(127.013 -144.964) rotate(180)" fill="#f5948d"/>
    <path id="Fill_153" data-name="Fill 153" d="M-72.852,21c1.648,1.124,18.665,10.4,33.9,12.3,16.02,1.99,23.976,2.218,29.367-4.335C-4.214,22.408,0,2.634,0,2.634S-.834,1.5-5.081,0C-6.141,4.968-8.807,21.156-17.539,27.793c0,0-15.687,3.511-28.845,0a96.953,96.953,0,0,1-21.592-8.929c-1.644.751-3.294,1.479-4.876,2.133" transform="translate(180.204 -114.563) rotate(180)" fill="#f5948d"/>
    <path id="Fill_155" data-name="Fill 155" d="M-.374.374H-.385V.385A.011.011,0,0,0-.374.374" transform="translate(205.79 -132.388) rotate(180)" fill="#f5948d"/>
    <path id="Fill_157" data-name="Fill 157" d="M-80,12.4c.111,2.783.749,5.1,2.18,6.584,4.829,5.053,13.97,2.82,22.219.613.749-.206,1.5-.411,2.238-.613a60.522,60.522,0,0,0,7.513-2.693C-37.091,12.638-26.5,7.047-23.489,5.8l0-.011c.011,0,.022-.005.032-.005A25.082,25.082,0,0,1-15.1,4.159S-7.973,6.82-2.7,6.714A3.154,3.154,0,0,0,0,5.531C-2.666,5.041-7.956,3.948-10.435,2.5-13.822.515-17.1-.2-18.738.046c-1.637.222-11.932,5.38-32.635,10.29C-66.553,13.932-75.059,14.059-80,12.4" transform="translate(207.205 -119.269) rotate(180)" fill="#f5948d"/>
    <path id="Fill_159" data-name="Fill 159" d="M-6.12,6.473l5.2.391.037-.095V6.748L0,.666S-2.619.275-6.083,0c.1,3.369-.037,6.473-.037,6.473" transform="translate(258.7 -105.074) rotate(180)" fill="#f5948d"/>
    <path id="Fill_161" data-name="Fill 161" d="M-50.89,47.051a.225.225,0,0,0,.082-.016c3.221-1.187,14.352-6.516,23.126-10.77,5.2-2.53,7.1-2.187,9.721-1.706.432.074.887.164,1.379.238a23.391,23.391,0,0,1,3.653.987c2.477.809,5.04,1.648,7.5.919A4.17,4.17,0,0,0-2.75,34.787,2.83,2.83,0,0,0-2.56,32.7a10.7,10.7,0,0,0-1.294-3.807c.063-.749.512-6.178.544-6.69C-3.3,22.067-2.37,8.439-.01.3A.229.229,0,0,0-.168.012.227.227,0,0,0-.458.165c-2.376,8.2-3.311,21.875-3.319,22.007-.034.534-.547,6.695-.552,6.753a.236.236,0,0,0,.037.147A10.51,10.51,0,0,1-3.014,32.8a2.485,2.485,0,0,1-.153,1.78,3.721,3.721,0,0,1-2.395,1.668c-2.322.692-4.818-.121-7.225-.908a23.809,23.809,0,0,0-3.729-1.008c-.485-.074-.935-.153-1.367-.232-2.707-.5-4.663-.856-10.006,1.742C-36.647,40.1-47.767,45.415-50.971,46.6a.232.232,0,0,0-.14.3.236.236,0,0,0,.222.158" transform="translate(203.948 -89.476) rotate(180)" fill="#00419b"/>
    <path id="Fill_163" data-name="Fill 163" d="M-27.163,21.273c.055-.016.331-.1.779-.232.095-.027.2-.064.3-.095a21.765,21.765,0,0,1,2.756-.665c.147-.027.317-.058.475-.079a34.656,34.656,0,0,1,5.39-.407h.1A92.667,92.667,0,0,1-4.129,20.7h.011a.221.221,0,0,0,.254-.169c.222-.871.475-1.974.75-3.221a.312.312,0,0,1,.015-.09C-1.713,10.724,0,.507,0,.238A.233.233,0,0,0-.224,0,.251.251,0,0,0-.469.238C-.485.571-2.135,10.466-3.52,16.959c-.037.159-.064.307-.1.46-.225,1.061-.446,2-.642,2.793a94.538,94.538,0,0,0-13.1-.882h-.1A27.86,27.86,0,0,0-27,20.751c-.1.317-.15.506-.162.522" transform="translate(254.609 -85.264) rotate(180)" fill="#00419b"/>
    <path id="Fill_165" data-name="Fill 165" d="M-10.823,11.057v.068c.238,2.7-.468,4.457,1.4,7.962s4.791,7.26,6.552,6.907,1.045-7.846.684-10.882a9.356,9.356,0,0,1,.626-3.828A25.922,25.922,0,0,1,0,7.7a3.806,3.806,0,0,0-.415-.069C-4.366,6.838-8.305,3.426-10.85,0c-.058,2.692-.147,8.9.027,11.057" transform="translate(119.785 -71.7) rotate(180)" fill="#f1b5ab"/>
    <path id="Fill_167" data-name="Fill 167" d="M-10.823,11.057a16.354,16.354,0,0,0,9.266.227A25.922,25.922,0,0,1,0,7.7a3.806,3.806,0,0,0-.415-.069C-4.366,6.838-8.305,3.426-10.85,0c-.058,2.692-.147,8.9.027,11.057" transform="translate(119.785 -71.7) rotate(180)" fill="#f5948d"/>
    <path id="Fill_169" data-name="Fill 169" d="M-11.081,0a1.063,1.063,0,0,0,.03.115C-10.495,2.3-9.444,5.7-8.3,9.139c2,6.029,4.3,12.218,4.892,12.344,0,0,.945-5.148,2.286-10,.149-.528.279-1.083.394-1.642A46.328,46.328,0,0,0-.008.691,26.364,26.364,0,0,1-11.081,0" transform="translate(224.641 -56.647) rotate(180)" fill="#f1b5ab"/>
    <path id="Fill_171" data-name="Fill 171" d="M-11.081,0a1.063,1.063,0,0,0,.03.115C-10.495,2.3-9.444,5.7-8.3,9.139a22.1,22.1,0,0,0,7.572.7A46.328,46.328,0,0,0-.008.691,26.364,26.364,0,0,1-11.081,0" transform="translate(224.641 -56.647) rotate(180)" fill="#f5948d"/>
    <path id="Fill_173" data-name="Fill 173" d="M-19.329,44.884a10.954,10.954,0,0,0,6.6,1.257A10.031,10.031,0,0,0-4.08,38.126c1.23-6.4-.491-17.34-.127-20.228s.76-2.767,2.038-2.893c0,0,2.379-3.9,2.154-6.267a12.028,12.028,0,0,0-.56-3.327C-1.392,2.946-3.447,0-8.631,0c-8.73,0-12.794,9.345-12.17,16.726s5.28,16.849,3.569,18.7c-1.732,1.848-5.787.111-6.65-1.726,0,0-2.2,7.624,4.554,11.188" transform="translate(135.589 -30.585) rotate(180)" fill="#d0412b"/>
    <path id="Fill_175" data-name="Fill 175" d="M-12.734,41.365A10.031,10.031,0,0,0-4.081,33.35c1.231-6.4-.491-17.34-.127-20.227s.76-2.767,2.039-2.894c0,0,2.379-3.9,2.154-6.267A12.025,12.025,0,0,0-.575.636c-4.842-1.537-10.6-.9-10.391,8.855.248,11.483,4.928,17.74,2.587,24.577a21.731,21.731,0,0,1-4.356,7.3" transform="translate(135.589 -35.361) rotate(180)" fill="#c02c26"/>
    <path id="Fill_177" data-name="Fill 177" d="M-37.852,14.841c1.346,3.2,6.759,6.394,6.759,6.394a17.173,17.173,0,0,0,2.676,4.9A27.68,27.68,0,0,0-26.6,28.326c2.561,2.767,5.858,5.159,9.15,5.829.147.022.288.037.438.063,5.961,1.046,11.082-1.093,14.451-7.57C.882,20.005.388,4.636-1.33,2.672-9.942,4.265-18.628.987-21.337.247s-3.234.085-5.691,3.522A14.3,14.3,0,0,0-28.28,5.976v.011a47.976,47.976,0,0,0-2.814,8.727c0-1.114-1.357-3.073-2.909-4.424a6.3,6.3,0,0,0-2.5-1.478c-2.212-.5-2.7,2.83-1.346,6.029" transform="translate(103.655 -47.967) rotate(180)" fill="#f1b5ab"/>
    <path id="Fill_179" data-name="Fill 179" d="M-11.252,8.854c1.346,3.2,6.759,6.394,6.759,6.394a17.173,17.173,0,0,0,2.676,4.9A27.68,27.68,0,0,0,0,22.339C-3.361,14.847-2.36,4.5-1.679,0A47.976,47.976,0,0,0-4.493,8.727c0-1.114-1.357-3.073-2.909-4.424a6.3,6.3,0,0,0-2.5-1.478c-2.212-.5-2.7,2.83-1.346,6.029" transform="translate(130.255 -53.954) rotate(180)" fill="#f5948d"/>
    <path id="Fill_181" data-name="Fill 181" d="M-4.564.189A4.434,4.434,0,0,1,0,1.615,32.371,32.371,0,0,0-2.4,7.67c-5.8-1.257-4.821-6.595-2.16-7.481" transform="translate(133.711 -38.924) rotate(180)" fill="#263b7f"/>
    <path id="Fill_183" data-name="Fill 183" d="M-35.08,23.983c1.552,1.351,2.909,3.31,2.909,4.424a52.609,52.609,0,0,1,2.016-6.816,18.8,18.8,0,0,1,2.049-4.129c2.458-3.437,2.988-4.255,5.692-3.522s11.394,4.018,20.005,2.424C.039,15.9.866,12.055-1.082,8.855S-17.413-1.72-25.038.366c-2.518.7-4.536,2.977-6.09,5.892-.029.058-.071.121-.1.191a32.058,32.058,0,0,0-2.313,5.872c-1.368,4.687-1.869,9.445-1.542,11.663" transform="translate(102.577 -34.275) rotate(180)" fill="#d0412b"/>
    <path id="Fill_185" data-name="Fill 185" d="M-.245,5.592h.034A.252.252,0,0,0,0,5.311C-.338,2.967-2.906.112-2.932.084A.24.24,0,0,0-3.115,0a.246.246,0,0,0-.166.064.237.237,0,0,0-.08.169A.239.239,0,0,0-3.3.407l.027.032c.326.383.643.783.944,1.193-.146.47-.572,2.052.064,2.66a1.149,1.149,0,0,0,.833.328,1.778,1.778,0,0,0,.7-.158,4.332,4.332,0,0,1,.241.923A.25.25,0,0,0-.245,5.592ZM-1.961,2.154A11.907,11.907,0,0,1-.913,4.008a1.253,1.253,0,0,1-.512.126.687.687,0,0,1-.494-.2c-.338-.319-.142-1.355-.042-1.785Z" transform="translate(134.994 -59.857) rotate(180)" fill="#983222"/>
    <path id="Fill_187" data-name="Fill 187" d="M-2.219,11.333c1.091,0,1.972-.031,1.98-.031a.241.241,0,0,0,.2-.111.252.252,0,0,0,.029-.217S-3.619.413-3.7.171A.247.247,0,0,0-4.012.013.246.246,0,0,0-4.17.324C-4.1.546-1.187,9.057-.585,10.82c-.633.011-2.064.037-3.342-.015a1.738,1.738,0,0,1-1.262-.4.457.457,0,0,1-.137-.306.254.254,0,0,0-.232-.259.246.246,0,0,0-.262.222.921.921,0,0,0,.251.66,2.21,2.21,0,0,0,1.626.576c.573.026,1.175.031,1.724.031" transform="translate(110.235 -61.693) rotate(180)" fill="#983222"/>
    <path id="Fill_189" data-name="Fill 189" d="M0,2.228a12.426,12.426,0,0,1-5.6-.49C-8.527.755-10.5,0-10.5,0s2.461,4.113,5.987,4.853A3.8,3.8,0,0,0,0,2.228" transform="translate(114.331 -74.107) rotate(180)" fill="#fff"/>
    <path id="Fill_191" data-name="Fill 191" d="M-.009,3.047C.155,2.467-1.978.175-4.766.011a10.3,10.3,0,0,0-5.4,1.515A33.047,33.047,0,0,1-4.109,1.9a23.113,23.113,0,0,1,4.1,1.152" transform="translate(119.57 -55.828) rotate(180)" fill="#d0412b"/>
    <path id="Fill_193" data-name="Fill 193" d="M-7.83,2.246A6.182,6.182,0,0,1-4.1.06,5.506,5.506,0,0,1,0,1.153a12.536,12.536,0,0,1-3.918.633,19.385,19.385,0,0,0-3.912.459" transform="translate(105.313 -57.749) rotate(180)" fill="#d0412b"/>
    <path id="Fill_195" data-name="Fill 195" d="M-2.073,2.406c.164,1.246.755,2.2,1.315,2.123s.881-1.152.713-2.4S-.8-.065-1.362,0s-.879,1.152-.711,2.4" transform="translate(109.708 -61.031) rotate(180)" fill="#601112"/>
    <path id="Fill_197" data-name="Fill 197" d="M-2.078,2.4c.169,1.251.761,2.2,1.32,2.128s.881-1.146.713-2.4S-.8-.075-1.362,0-2.241,1.15-2.078,2.4" transform="translate(123.768 -59.505) rotate(180)" fill="#601112"/>
    <path id="Fill_199" data-name="Fill 199" d="M-4.926,17.535c1.552,1.351,2.909,3.31,2.909,4.424A52.609,52.609,0,0,1,0,15.143,78.943,78.943,0,0,1-1.071,0,32.058,32.058,0,0,0-3.384,5.872c-1.368,4.687-1.869,9.445-1.542,11.663" transform="translate(132.732 -40.723) rotate(180)" fill="#c02c26"/>
    <path id="Fill_201" data-name="Fill 201" d="M-14.536,14.208A44.054,44.054,0,0,0-1.225,11.341c.048-.475.1-.945.148-1.42C-.713,6.532-.348,3.136,0,0A50.23,50.23,0,0,1-11.848,2.956c-.705,3.052-1.8,7.74-2.688,11.252" transform="translate(191.349 -299.799) rotate(180)" fill="#007ad5"/>
  </g>
</svg>
